<svg width="38" height="38" viewBox="0 0 38 38" fill="none" xmlns="http://www.w3.org/2000/svg">
<g clip-path="url(#clip0_298_15572)">
<path d="M19.0431 37.8756L10.1445 28.9826L11.9588 27.8491H14.637L17.6608 30.2032H19.1727H20.6846L25.0907 26.2798L26.1274 27.8491V30.4647L19.0431 37.8756Z" fill="#F45337"/>
<path fill-rule="evenodd" clip-rule="evenodd" d="M25.1077 26.1484L26.2138 27.8228V30.5L19.0445 37.9998L10.0059 28.9667L11.9342 27.762H14.6665L17.6903 30.1161H20.6519L25.1077 26.1484ZM25.0737 26.4113L20.7173 30.2904H17.6314L14.6076 27.9364H11.9834L10.2832 28.9985L19.0417 37.7516L26.041 30.4296V27.8756L25.0737 26.4113Z" fill="#F45337"/>
<path d="M19.3026 0.123918L28.2012 9.01694L26.3869 10.1504L23.7087 10.1504L20.6849 7.79633H19.173L17.6611 7.79633L13.255 11.7197L12.2183 10.1504L12.2183 7.53477L19.3026 0.123918Z" fill="#F08D0C"/>
<path fill-rule="evenodd" clip-rule="evenodd" d="M13.238 11.8516L12.1319 10.1772V7.49999L19.3012 0.000223584L28.3398 9.03325L26.4115 10.238L23.6792 10.238L20.6554 7.88393L17.6938 7.88393L13.238 11.8516ZM13.272 11.5887L17.6284 7.70956L20.7143 7.70956L23.7381 10.0636L26.3623 10.0636L28.0625 9.00146L19.304 0.248437L12.3047 7.57039V10.1244L13.272 11.5887Z" fill="#F08D0C"/>
<path d="M37.8771 18.782L29.0649 27.7622L27.9418 25.9313V23.2285L30.2744 20.177V18.6512V17.1254L26.3867 12.6789L27.9418 11.6327H30.5336L37.8771 18.782Z" fill="#4C6CDD"/>
<path fill-rule="evenodd" clip-rule="evenodd" d="M26.2568 12.6619L27.916 11.5457H30.5688L38.0004 18.7808L29.0495 27.9023L27.8558 25.9563V23.199L30.1884 20.1474V17.1586L26.2568 12.6619ZM26.5173 12.6963L30.3612 17.0927V20.2069L28.0285 23.2584V25.9067L29.081 27.6224L37.7545 18.7836L30.4991 11.7201H27.9683L26.5173 12.6963Z" fill="#4C6CDD"/>
<path d="M0.122899 18.8689L8.93507 9.88867L10.0582 11.7196V14.4224L7.72556 17.4739V18.9997L7.72556 20.5254L11.6133 24.9719L10.0582 26.0182H7.46638L0.122899 18.8689Z" fill="#FDE137"/>
<path fill-rule="evenodd" clip-rule="evenodd" d="M11.7432 24.9889L10.084 26.1052H7.43115L-0.000424895 18.8701L8.95048 9.74854L10.1442 11.6946V14.4519L7.81161 17.5034L7.81161 20.4923L11.7432 24.9889ZM11.4827 24.9546L7.63882 20.5582V17.444L9.97145 14.3925V11.7442L8.91897 10.0285L0.245532 18.8673L7.50091 25.9308H10.0317L11.4827 24.9546Z" fill="#FDE137"/>
<path d="M16.7107 19.0437C16.7107 20.729 15.3569 22.0952 13.6869 22.0952C12.0169 22.0952 10.6631 20.729 10.6631 19.0437C10.6631 17.3584 12.0169 15.9922 13.6869 15.9922C15.3569 15.9922 16.7107 17.3584 16.7107 19.0437Z" fill="#FDE137"/>
<path fill-rule="evenodd" clip-rule="evenodd" d="M13.6869 21.9209C15.2614 21.9209 16.5379 20.6327 16.5379 19.0437C16.5379 17.4547 15.2614 16.1666 13.6869 16.1666C12.1123 16.1666 10.8359 17.4547 10.8359 19.0437C10.8359 20.6327 12.1123 21.9209 13.6869 21.9209ZM13.6869 22.0952C15.3569 22.0952 16.7107 20.729 16.7107 19.0437C16.7107 17.3584 15.3569 15.9922 13.6869 15.9922C12.0169 15.9922 10.6631 17.3584 10.6631 19.0437C10.6631 20.729 12.0169 22.0952 13.6869 22.0952Z" fill="#FDE137"/>
<path d="M27.7692 18.6946C27.7692 20.3799 26.4155 21.7461 24.7455 21.7461C23.0755 21.7461 21.7217 20.3799 21.7217 18.6946C21.7217 17.0093 23.0755 15.6431 24.7455 15.6431C26.4155 15.6431 27.7692 17.0093 27.7692 18.6946Z" fill="#4C6CDD"/>
<path fill-rule="evenodd" clip-rule="evenodd" d="M24.7455 21.5718C26.32 21.5718 27.5965 20.2836 27.5965 18.6946C27.5965 17.1056 26.32 15.8174 24.7455 15.8174C23.1709 15.8174 21.8945 17.1056 21.8945 18.6946C21.8945 20.2836 23.1709 21.5718 24.7455 21.5718ZM24.7455 21.7461C26.4155 21.7461 27.7692 20.3799 27.7692 18.6946C27.7692 17.0093 26.4155 15.6431 24.7455 15.6431C23.0755 15.6431 21.7217 17.0093 21.7217 18.6946C21.7217 20.3799 23.0755 21.7461 24.7455 21.7461Z" fill="#4C6CDD"/>
<path d="M22.0671 13.638C22.0671 15.3233 20.7133 16.6895 19.0433 16.6895C17.3733 16.6895 16.0195 15.3233 16.0195 13.638C16.0195 11.9526 17.3733 10.5864 19.0433 10.5864C20.7133 10.5864 22.0671 11.9526 22.0671 13.638Z" fill="#F08D0C"/>
<path fill-rule="evenodd" clip-rule="evenodd" d="M19.0433 16.5151C20.6179 16.5151 21.8943 15.227 21.8943 13.638C21.8943 12.0489 20.6179 10.7608 19.0433 10.7608C17.4688 10.7608 16.1923 12.0489 16.1923 13.638C16.1923 15.227 17.4688 16.5151 19.0433 16.5151ZM19.0433 16.6895C20.7133 16.6895 22.0671 15.3233 22.0671 13.638C22.0671 11.9526 20.7133 10.5864 19.0433 10.5864C17.3733 10.5864 16.0195 11.9526 16.0195 13.638C16.0195 15.3233 17.3733 16.6895 19.0433 16.6895Z" fill="#F08D0C"/>
<path d="M22.24 24.2747C22.24 25.96 20.8862 27.3262 19.2162 27.3262C17.5462 27.3262 16.1924 25.96 16.1924 24.2747C16.1924 22.5894 17.5462 21.2231 19.2162 21.2231C20.8862 21.2231 22.24 22.5894 22.24 24.2747Z" fill="#F45337"/>
<path fill-rule="evenodd" clip-rule="evenodd" d="M19.2162 27.1518C20.7907 27.1518 22.0672 25.8637 22.0672 24.2747C22.0672 22.6857 20.7907 21.3975 19.2162 21.3975C17.6416 21.3975 16.3652 22.6857 16.3652 24.2747C16.3652 25.8637 17.6416 27.1518 19.2162 27.1518ZM19.2162 27.3262C20.8862 27.3262 22.24 25.96 22.24 24.2747C22.24 22.5894 20.8862 21.2231 19.2162 21.2231C17.5462 21.2231 16.1924 22.5894 16.1924 24.2747C16.1924 25.96 17.5462 27.3262 19.2162 27.3262Z" fill="#F45337"/>
</g>
<defs>
<clipPath id="clip0_298_15572">
<rect width="38" height="38" fill="white"/>
</clipPath>
</defs>
</svg>
