<svg width="141" height="38" viewBox="0 0 141 38" fill="none" xmlns="http://www.w3.org/2000/svg">
<g clip-path="url(#clip0_298_15575)">
<path d="M105.497 29.1816V15.5452H108.045V17.7647H108.214C108.498 17.013 108.962 16.4271 109.608 16.0069C110.253 15.5807 111.025 15.3677 111.925 15.3677C112.836 15.3677 113.6 15.5807 114.215 16.0069C114.837 16.433 115.295 17.019 115.591 17.7647H115.733C116.059 17.0367 116.577 16.4567 117.287 16.0246C117.997 15.5867 118.843 15.3677 119.826 15.3677C121.063 15.3677 122.072 15.7553 122.853 16.5307C123.64 17.306 124.034 18.4749 124.034 20.0374V29.1816H121.38V20.286C121.38 19.3627 121.128 18.6939 120.625 18.2796C120.122 17.8653 119.521 17.6582 118.823 17.6582C117.959 17.6582 117.287 17.9245 116.807 18.4572C116.328 18.9839 116.088 19.6616 116.088 20.4902V29.1816H113.443V20.1173C113.443 19.3775 113.212 18.7827 112.75 18.3329C112.289 17.8831 111.688 17.6582 110.948 17.6582C110.445 17.6582 109.98 17.7913 109.554 18.0577C109.134 18.3181 108.794 18.6821 108.533 19.1496C108.279 19.6172 108.152 20.1588 108.152 20.7743V29.1816H105.497Z" fill="black"/>
<path d="M96.1778 29.4568C94.8994 29.4568 93.7838 29.1638 92.8309 28.5779C91.878 27.992 91.1382 27.1722 90.6114 26.1187C90.0847 25.0652 89.8213 23.8342 89.8213 22.4256C89.8213 21.011 90.0847 19.774 90.6114 18.7146C91.1382 17.6552 91.878 16.8325 92.8309 16.2466C93.7838 15.6606 94.8994 15.3677 96.1778 15.3677C97.4562 15.3677 98.5719 15.6606 99.5248 16.2466C100.478 16.8325 101.217 17.6552 101.744 18.7146C102.271 19.774 102.534 21.011 102.534 22.4256C102.534 23.8342 102.271 25.0652 101.744 26.1187C101.217 27.1722 100.478 27.992 99.5248 28.5779C98.5719 29.1638 97.4562 29.4568 96.1778 29.4568ZM96.1867 27.2285C97.0153 27.2285 97.7019 27.0095 98.2464 26.5715C98.7909 26.1335 99.1933 25.5506 99.4537 24.8226C99.7201 24.0946 99.8532 23.2926 99.8532 22.4167C99.8532 21.5467 99.7201 20.7476 99.4537 20.0197C99.1933 19.2858 98.7909 18.6969 98.2464 18.253C97.7019 17.8091 97.0153 17.5871 96.1867 17.5871C95.3522 17.5871 94.6597 17.8091 94.1093 18.253C93.5648 18.6969 93.1594 19.2858 92.893 20.0197C92.6326 20.7476 92.5024 21.5467 92.5024 22.4167C92.5024 23.2926 92.6326 24.0946 92.893 24.8226C93.1594 25.5506 93.5648 26.1335 94.1093 26.5715C94.6597 27.0095 95.3522 27.2285 96.1867 27.2285Z" fill="black"/>
<path d="M81.1143 29.4568C79.8359 29.4568 78.7203 29.1638 77.7674 28.5779C76.8145 27.992 76.0747 27.1722 75.5479 26.1187C75.0212 25.0652 74.7578 23.8342 74.7578 22.4256C74.7578 21.011 75.0212 19.774 75.5479 18.7146C76.0747 17.6552 76.8145 16.8325 77.7674 16.2466C78.7203 15.6606 79.8359 15.3677 81.1143 15.3677C82.3928 15.3677 83.5084 15.6606 84.4613 16.2466C85.4142 16.8325 86.154 17.6552 86.6808 18.7146C87.2075 19.774 87.4709 21.011 87.4709 22.4256C87.4709 23.8342 87.2075 25.0652 86.6808 26.1187C86.154 27.1722 85.4142 27.992 84.4613 28.5779C83.5084 29.1638 82.3928 29.4568 81.1143 29.4568ZM81.1232 27.2285C81.9518 27.2285 82.6384 27.0095 83.1829 26.5715C83.7274 26.1335 84.1299 25.5506 84.3903 24.8226C84.6566 24.0946 84.7898 23.2926 84.7898 22.4167C84.7898 21.5467 84.6566 20.7476 84.3903 20.0197C84.1299 19.2858 83.7274 18.6969 83.1829 18.253C82.6384 17.8091 81.9518 17.5871 81.1232 17.5871C80.2887 17.5871 79.5962 17.8091 79.0458 18.253C78.5013 18.6969 78.0959 19.2858 77.8295 20.0197C77.5691 20.7476 77.4389 21.5467 77.4389 22.4167C77.4389 23.2926 77.5691 24.0946 77.8295 24.8226C78.0959 25.5506 78.5013 26.1335 79.0458 26.5715C79.5962 27.0095 80.2887 27.2285 81.1232 27.2285Z" fill="black"/>
<path d="M71.799 11V29.1818H69.1445V11H71.799Z" fill="black"/>
<path d="M53 29.1818V11H59.6584C60.9486 11 62.0169 11.2131 62.8633 11.6392C63.7096 12.0594 64.3429 12.6306 64.7631 13.3526C65.1834 14.0688 65.3935 14.8767 65.3935 15.7763C65.3935 16.5339 65.2544 17.1731 64.9762 17.6939C64.698 18.2088 64.3252 18.6231 63.8576 18.9368C63.396 19.2446 62.887 19.4695 62.3306 19.6115V19.7891C62.9343 19.8187 63.5232 20.014 64.0973 20.375C64.6773 20.7301 65.1567 21.2362 65.5355 21.8931C65.9143 22.5501 66.1037 23.3491 66.1037 24.2901C66.1037 25.2193 65.8847 26.0539 65.4467 26.7937C65.0147 27.5276 64.3459 28.1106 63.4403 28.5426C62.5348 28.9688 61.3777 29.1818 59.9691 29.1818H53ZM55.7433 26.8292H59.7028C61.0167 26.8292 61.9577 26.5747 62.5259 26.0657C63.0941 25.5567 63.3782 24.9205 63.3782 24.157C63.3782 23.5829 63.2332 23.0561 62.9432 22.5767C62.6532 22.0973 62.2389 21.7156 61.7003 21.4315C61.1676 21.1474 60.5343 21.0053 59.8004 21.0053H55.7433V26.8292ZM55.7433 18.8658H59.4187C60.0342 18.8658 60.5876 18.7474 61.0788 18.5107C61.576 18.2739 61.9696 17.9425 62.2596 17.5163C62.5555 17.0843 62.7035 16.5753 62.7035 15.9893C62.7035 15.2377 62.4401 14.6074 61.9134 14.0984C61.3866 13.5894 60.5787 13.3349 59.4897 13.3349H55.7433V18.8658Z" fill="black"/>
<path d="M19.0431 37.8756L10.1445 28.9826L11.9588 27.8491H14.637L17.6608 30.2032H19.1727H20.6846L25.0907 26.2798L26.1274 27.8491V30.4647L19.0431 37.8756Z" fill="#F45337"/>
<path fill-rule="evenodd" clip-rule="evenodd" d="M25.1077 26.1484L26.2138 27.8228V30.5L19.0445 37.9998L10.0059 28.9667L11.9342 27.762H14.6665L17.6903 30.1161H20.6519L25.1077 26.1484ZM25.0737 26.4113L20.7173 30.2904H17.6314L14.6076 27.9364H11.9834L10.2832 28.9985L19.0417 37.7516L26.041 30.4296V27.8756L25.0737 26.4113Z" fill="#F45337"/>
<path d="M19.3026 0.123918L28.2012 9.01694L26.3869 10.1504L23.7087 10.1504L20.6849 7.79633H19.173L17.6611 7.79633L13.255 11.7197L12.2183 10.1504L12.2183 7.53477L19.3026 0.123918Z" fill="#F08D0C"/>
<path fill-rule="evenodd" clip-rule="evenodd" d="M13.238 11.8516L12.1319 10.1772V7.49999L19.3012 0.000223584L28.3398 9.03325L26.4115 10.238L23.6792 10.238L20.6554 7.88393L17.6938 7.88393L13.238 11.8516ZM13.272 11.5887L17.6284 7.70956L20.7143 7.70956L23.7381 10.0636L26.3623 10.0636L28.0625 9.00146L19.304 0.248437L12.3047 7.57039V10.1244L13.272 11.5887Z" fill="#F08D0C"/>
<path d="M37.8771 18.782L29.0649 27.7622L27.9418 25.9313V23.2285L30.2744 20.177V18.6512V17.1254L26.3867 12.6789L27.9418 11.6327H30.5336L37.8771 18.782Z" fill="#4C6CDD"/>
<path fill-rule="evenodd" clip-rule="evenodd" d="M26.2568 12.6619L27.916 11.5457H30.5688L38.0004 18.7808L29.0495 27.9023L27.8558 25.9563V23.199L30.1884 20.1474V17.1586L26.2568 12.6619ZM26.5173 12.6963L30.3612 17.0927V20.2069L28.0285 23.2584V25.9067L29.081 27.6224L37.7545 18.7836L30.4991 11.7201H27.9683L26.5173 12.6963Z" fill="#4C6CDD"/>
<path d="M0.122899 18.8689L8.93507 9.88867L10.0582 11.7196V14.4224L7.72556 17.4739V18.9997L7.72556 20.5254L11.6133 24.9719L10.0582 26.0182H7.46638L0.122899 18.8689Z" fill="#FDE137"/>
<path fill-rule="evenodd" clip-rule="evenodd" d="M11.7432 24.9889L10.084 26.1052H7.43115L-0.000424895 18.8701L8.95048 9.74854L10.1442 11.6946V14.4519L7.81161 17.5034L7.81161 20.4923L11.7432 24.9889ZM11.4827 24.9546L7.63882 20.5582V17.444L9.97145 14.3925V11.7442L8.91897 10.0285L0.245532 18.8673L7.50091 25.9308H10.0317L11.4827 24.9546Z" fill="#FDE137"/>
<path d="M16.7107 19.0437C16.7107 20.729 15.3569 22.0952 13.6869 22.0952C12.0169 22.0952 10.6631 20.729 10.6631 19.0437C10.6631 17.3584 12.0169 15.9922 13.6869 15.9922C15.3569 15.9922 16.7107 17.3584 16.7107 19.0437Z" fill="#FDE137"/>
<path fill-rule="evenodd" clip-rule="evenodd" d="M13.6869 21.9209C15.2614 21.9209 16.5379 20.6327 16.5379 19.0437C16.5379 17.4547 15.2614 16.1666 13.6869 16.1666C12.1123 16.1666 10.8359 17.4547 10.8359 19.0437C10.8359 20.6327 12.1123 21.9209 13.6869 21.9209ZM13.6869 22.0952C15.3569 22.0952 16.7107 20.729 16.7107 19.0437C16.7107 17.3584 15.3569 15.9922 13.6869 15.9922C12.0169 15.9922 10.6631 17.3584 10.6631 19.0437C10.6631 20.729 12.0169 22.0952 13.6869 22.0952Z" fill="#FDE137"/>
<path d="M27.7692 18.6946C27.7692 20.3799 26.4155 21.7461 24.7455 21.7461C23.0755 21.7461 21.7217 20.3799 21.7217 18.6946C21.7217 17.0093 23.0755 15.6431 24.7455 15.6431C26.4155 15.6431 27.7692 17.0093 27.7692 18.6946Z" fill="#4C6CDD"/>
<path fill-rule="evenodd" clip-rule="evenodd" d="M24.7455 21.5718C26.32 21.5718 27.5965 20.2836 27.5965 18.6946C27.5965 17.1056 26.32 15.8174 24.7455 15.8174C23.1709 15.8174 21.8945 17.1056 21.8945 18.6946C21.8945 20.2836 23.1709 21.5718 24.7455 21.5718ZM24.7455 21.7461C26.4155 21.7461 27.7692 20.3799 27.7692 18.6946C27.7692 17.0093 26.4155 15.6431 24.7455 15.6431C23.0755 15.6431 21.7217 17.0093 21.7217 18.6946C21.7217 20.3799 23.0755 21.7461 24.7455 21.7461Z" fill="#4C6CDD"/>
<path d="M22.0671 13.638C22.0671 15.3233 20.7133 16.6895 19.0433 16.6895C17.3733 16.6895 16.0195 15.3233 16.0195 13.638C16.0195 11.9526 17.3733 10.5864 19.0433 10.5864C20.7133 10.5864 22.0671 11.9526 22.0671 13.638Z" fill="#F08D0C"/>
<path fill-rule="evenodd" clip-rule="evenodd" d="M19.0433 16.5151C20.6179 16.5151 21.8943 15.227 21.8943 13.638C21.8943 12.0489 20.6179 10.7608 19.0433 10.7608C17.4688 10.7608 16.1923 12.0489 16.1923 13.638C16.1923 15.227 17.4688 16.5151 19.0433 16.5151ZM19.0433 16.6895C20.7133 16.6895 22.0671 15.3233 22.0671 13.638C22.0671 11.9526 20.7133 10.5864 19.0433 10.5864C17.3733 10.5864 16.0195 11.9526 16.0195 13.638C16.0195 15.3233 17.3733 16.6895 19.0433 16.6895Z" fill="#F08D0C"/>
<path d="M22.24 24.2747C22.24 25.96 20.8862 27.3262 19.2162 27.3262C17.5462 27.3262 16.1924 25.96 16.1924 24.2747C16.1924 22.5894 17.5462 21.2231 19.2162 21.2231C20.8862 21.2231 22.24 22.5894 22.24 24.2747Z" fill="#F45337"/>
<path fill-rule="evenodd" clip-rule="evenodd" d="M19.2162 27.1518C20.7907 27.1518 22.0672 25.8637 22.0672 24.2747C22.0672 22.6857 20.7907 21.3975 19.2162 21.3975C17.6416 21.3975 16.3652 22.6857 16.3652 24.2747C16.3652 25.8637 17.6416 27.1518 19.2162 27.1518ZM19.2162 27.3262C20.8862 27.3262 22.24 25.96 22.24 24.2747C22.24 22.5894 20.8862 21.2231 19.2162 21.2231C17.5462 21.2231 16.1924 22.5894 16.1924 24.2747C16.1924 25.96 17.5462 27.3262 19.2162 27.3262Z" fill="#F45337"/>
</g>
<defs>
<clipPath id="clip0_298_15575">
<rect width="141" height="38" fill="white"/>
</clipPath>
</defs>
</svg>
